<svg data-v-fde0c5aa="" xmlns="http://www.w3.org/2000/svg" viewBox="0 0 300 300" class="iconAboveSlogan"><!----><defs data-v-fde0c5aa=""><!----></defs><rect data-v-fde0c5aa="" fill="#00242C" x="0" y="0" width="300px" height="300px" class="logo-background-square"></rect><defs data-v-fde0c5aa=""><!----></defs><g data-v-fde0c5aa="" id="e49e6cc6-9cdf-465a-b9cf-9151a5bc55ab" fill="#FFFFFF" transform="matrix(6.817147254943848,0,0,6.817147254943848,28.00714859544053,143.85993122853534)"><path d="M7.05 3.12L9.08 5.13L9.08 5.13Q8.86 6.33 8.37 7.46L8.37 7.46L8.37 7.46Q7.89 8.59 7.25 9.60L7.25 9.60L7.25 9.60Q6.61 10.61 5.86 11.48L5.86 11.48L5.86 11.48Q5.11 12.35 4.36 13.03L4.36 13.03L4.36 13.03Q3.62 13.71 2.92 14.18L2.92 14.18L2.92 14.18Q2.22 14.65 1.68 14.87L1.68 14.87L1.68 14.87Q1.61 14.90 1.55 14.91L1.55 14.91L1.55 14.91Q1.49 14.92 1.47 14.92L1.47 14.92L1.47 14.92Q1.33 14.92 1.19 14.81L1.19 14.81L1.19 14.81Q1.04 14.70 0.91 14.56L0.91 14.56L0.91 14.56Q0.77 14.42 0.67 14.27L0.67 14.27L0.67 14.27Q0.57 14.13 0.53 14.05L0.53 14.05L0.53 14.05Q0.50 14 0.46 13.89L0.46 13.89L0.46 13.89Q0.43 13.79 0.43 13.65L0.43 13.65L0.43 13.65Q0.43 13.30 0.51 12.69L0.51 12.69L0.51 12.69Q0.58 12.09 0.72 11.31L0.72 11.31L0.72 11.31Q0.87 10.53 1.06 9.61L1.06 9.61L1.06 9.61Q1.26 8.70 1.50 7.72L1.50 7.72L1.50 7.72Q1.75 6.74 2.03 5.73L2.03 5.73L2.03 5.73Q2.31 4.72 2.62 3.77L2.62 3.77L2.62 3.77Q2.72 3.88 2.87 4.05L2.87 4.05L2.87 4.05Q3.02 4.23 3.19 4.43L3.19 4.43L3.19 4.43Q3.35 4.63 3.51 4.84L3.51 4.84L3.51 4.84Q3.67 5.04 3.80 5.21L3.80 5.21L3.80 5.21Q3.92 5.37 4.00 5.48L4.00 5.48L4.00 5.48Q4.07 5.58 4.07 5.58L4.07 5.58L4.07 5.58Q3.71 6.67 3.39 7.75L3.39 7.75L3.39 7.75Q3.07 8.84 2.79 9.88L2.79 9.88L2.79 9.88Q2.52 10.92 2.28 11.89L2.28 11.89L2.28 11.89Q2.04 12.87 1.83 13.71L1.83 13.71L1.83 13.71Q2.64 13.22 3.35 12.54L3.35 12.54L3.35 12.54Q4.05 11.87 4.65 11.07L4.65 11.07L4.65 11.07Q5.24 10.27 5.71 9.39L5.71 9.39L5.71 9.39Q6.18 8.50 6.50 7.60L6.50 7.60L6.50 7.60Q6.83 6.69 7 5.80L7 5.80L7 5.80Q7.17 4.91 7.17 4.09L7.17 4.09L7.17 4.09Q7.17 3.86 7.15 3.69L7.15 3.69L7.15 3.69Q7.14 3.52 7.12 3.40L7.12 3.40L7.12 3.40Q7.10 3.29 7.08 3.22L7.08 3.22L7.08 3.22Q7.06 3.16 7.05 3.12L7.05 3.12ZM12.30 11.66L12.63 12.00L12.63 12.00Q12.00 12.61 11.45 13.03L11.45 13.03L11.45 13.03Q10.89 13.45 10.38 13.70L10.38 13.70L10.38 13.70Q9.88 13.95 9.42 14.06L9.42 14.06L9.42 14.06Q8.96 14.17 8.52 14.17L8.52 14.17L8.52 14.17Q8.33 14.17 8.11 14.03L8.11 14.03L8.11 14.03Q7.88 13.90 7.69 13.70L7.69 13.70L7.69 13.70Q7.49 13.51 7.36 13.30L7.36 13.30L7.36 13.30Q7.23 13.08 7.23 12.93L7.23 12.93L7.23 12.93Q7.23 12.37 7.39 11.90L7.39 11.90L7.39 11.90Q7.54 11.44 7.79 11.06L7.79 11.06L7.79 11.06Q8.05 10.68 8.37 10.40L8.37 10.40L8.37 10.40Q8.70 10.11 9.05 9.92L9.05 9.92L9.05 9.92Q9.40 9.73 9.75 9.63L9.75 9.63L9.75 9.63Q10.10 9.54 10.39 9.54L10.39 9.54L10.39 9.54Q10.60 9.54 10.81 9.66L10.81 9.66L10.81 9.66Q11.02 9.78 11.19 9.96L11.19 9.96L11.19 9.96Q11.36 10.14 11.47 10.33L11.47 10.33L11.47 10.33Q11.57 10.53 11.57 10.67L11.57 10.67L11.57 10.67Q11.57 10.90 11.38 11.15L11.38 11.15L11.38 11.15Q11.18 11.39 10.83 11.64L10.83 11.64L10.83 11.64Q10.47 11.89 9.97 12.16L9.97 12.16L9.97 12.16Q9.47 12.42 8.87 12.69L8.87 12.69L8.87 12.69Q8.85 12.85 8.85 13.01L8.85 13.01L8.85 13.01Q8.85 13.22 8.94 13.30L8.94 13.30L8.94 13.30Q9.04 13.37 9.29 13.37L9.29 13.37L9.29 13.37Q9.74 13.37 10.14 13.22L10.14 13.22L10.14 13.22Q10.54 13.07 10.91 12.83L10.91 12.83L10.91 12.83Q11.28 12.59 11.62 12.28L11.62 12.28L11.62 12.28Q11.96 11.98 12.30 11.66L12.30 11.66ZM10.23 10.29L10.23 10.29L10.23 10.29Q10.09 10.29 9.93 10.44L9.93 10.44L9.93 10.44Q9.76 10.58 9.60 10.82L9.60 10.82L9.60 10.82Q9.43 11.06 9.28 11.37L9.28 11.37L9.28 11.37Q9.13 11.68 9.02 12.02L9.02 12.02L9.02 12.02Q9.28 11.85 9.52 11.67L9.52 11.67L9.52 11.67Q9.76 11.48 9.95 11.28L9.95 11.28L9.95 11.28Q10.14 11.08 10.26 10.87L10.26 10.87L10.26 10.87Q10.38 10.66 10.38 10.45L10.38 10.45L10.38 10.45Q10.38 10.38 10.34 10.34L10.34 10.34L10.34 10.34Q10.30 10.29 10.23 10.29ZM13.74 13.20L13.74 13.20L13.74 13.20Q13.85 13.20 14.04 13.10L14.04 13.10L14.04 13.10Q14.23 13.01 14.45 12.86L14.45 12.86L14.45 12.86Q14.68 12.71 14.92 12.54L14.92 12.54L14.92 12.54Q15.17 12.36 15.38 12.19L15.38 12.19L15.38 12.19Q15.60 12.02 15.77 11.87L15.77 11.87L15.77 11.87Q15.94 11.73 16.02 11.66L16.02 11.66L16.02 11.66Q16.08 11.72 16.17 11.82L16.17 11.82L16.17 11.82Q16.26 11.92 16.33 12.00L16.33 12.00L16.33 12.00Q16.18 12.15 15.96 12.36L15.96 12.36L15.96 12.36Q15.73 12.58 15.47 12.80L15.47 12.80L15.47 12.80Q15.20 13.03 14.92 13.25L14.92 13.25L14.92 13.25Q14.64 13.48 14.37 13.66L14.37 13.66L14.37 13.66Q14.10 13.84 13.86 13.95L13.86 13.95L13.86 13.95Q13.63 14.05 13.47 14.05L13.47 14.05L13.47 14.05Q13.26 14.05 13.03 13.90L13.03 13.90L13.03 13.90Q12.79 13.75 12.58 13.55L12.58 13.55L12.58 13.55Q12.38 13.35 12.24 13.15L12.24 13.15L12.24 13.15Q12.09 12.94 12.07 12.84L12.07 12.84L12.07 12.84Q12.06 12.80 12.06 12.74L12.06 12.74L12.06 12.74Q12.06 12.68 12.06 12.61L12.06 12.61L12.06 12.61Q12.06 12.27 12.14 11.75L12.14 11.75L12.14 11.75Q12.23 11.22 12.37 10.64L12.37 10.64L12.37 10.64Q12.52 10.06 12.70 9.48L12.70 9.48L12.70 9.48Q12.89 8.90 13.10 8.46L13.10 8.46L13.10 8.46Q13.51 7.55 13.96 6.84L13.96 6.84L13.96 6.84Q14.40 6.14 14.82 5.62L14.82 5.62L14.82 5.62Q15.24 5.09 15.63 4.74L15.63 4.74L15.63 4.74Q16.02 4.38 16.33 4.16L16.33 4.16L16.33 4.16Q16.65 3.94 16.86 3.85L16.86 3.85L16.86 3.85Q17.08 3.75 17.16 3.75L17.16 3.75L17.16 3.75Q17.29 3.80 17.42 3.89L17.42 3.89L17.42 3.89Q17.55 3.99 17.67 4.09L17.67 4.09L17.67 4.09Q17.79 4.19 17.88 4.29L17.88 4.29L17.88 4.29Q17.96 4.39 18.01 4.44L18.01 4.44L18.01 4.44Q18.06 4.49 18.08 4.54L18.08 4.54L18.08 4.54Q18.09 4.59 18.09 4.68L18.09 4.68L18.09 4.68Q18.09 4.84 18.01 5.13L18.01 5.13L18.01 5.13Q17.93 5.41 17.71 5.85L17.71 5.85L17.71 5.85Q17.48 6.30 17.08 6.91L17.08 6.91L17.08 6.91Q16.68 7.53 16.04 8.35L16.04 8.35L16.04 8.35Q15.74 8.73 15.40 9.13L15.40 9.13L15.40 9.13Q15.11 9.47 14.74 9.87L14.74 9.87L14.74 9.87Q14.36 10.27 13.97 10.64L13.97 10.64L13.97 10.64Q13.77 11.40 13.69 11.97L13.69 11.97L13.69 11.97Q13.61 12.54 13.61 12.87L13.61 12.87L13.61 12.87Q13.61 13.08 13.64 13.14L13.64 13.14L13.64 13.14Q13.68 13.20 13.74 13.20ZM14.83 8.19L14.83 8.19L14.83 8.19Q14.72 8.45 14.62 8.70L14.62 8.70L14.62 8.70Q14.52 8.94 14.43 9.18L14.43 9.18L14.43 9.18Q14.64 8.94 14.82 8.72L14.82 8.72L14.82 8.72Q14.99 8.50 15.11 8.35L15.11 8.35L15.11 8.35Q15.26 8.16 15.37 8.00L15.37 8.00L15.37 8.00Q15.85 7.33 16.20 6.77L16.20 6.77L16.20 6.77Q16.55 6.21 16.78 5.78L16.78 5.78L16.78 5.78Q17.00 5.35 17.11 5.07L17.11 5.07L17.11 5.07Q17.21 4.79 17.21 4.66L17.21 4.66L17.21 4.66Q17.21 4.63 17.21 4.61L17.21 4.61L17.21 4.61Q17.21 4.59 17.17 4.59L17.17 4.59L17.17 4.59Q17.11 4.59 16.89 4.80L16.89 4.80L16.89 4.80Q16.67 5.00 16.35 5.43L16.35 5.43L16.35 5.43Q16.04 5.87 15.64 6.55L15.64 6.55L15.64 6.55Q15.25 7.23 14.83 8.19ZM16.84 12.98L16.84 12.98L16.84 12.98Q16.84 13.19 16.99 13.19L16.99 13.19L16.99 13.19Q17.14 13.19 17.40 12.94L17.40 12.94L17.40 12.94Q17.66 12.69 17.94 12.30L17.94 12.30L17.94 12.30Q17.93 12.23 17.93 12.17L17.93 12.17L17.93 12.17Q17.92 12.11 17.92 12.07L17.92 12.07L17.92 12.07Q17.92 11.93 17.95 11.74L17.95 11.74L17.95 11.74Q17.99 11.55 18.11 11.31L18.11 11.31L18.11 11.31Q18.19 11.13 18.31 10.95L18.31 10.95L18.31 10.95Q18.40 10.79 18.54 10.61L18.54 10.61L18.54 10.61Q18.68 10.43 18.84 10.27L18.84 10.27L18.88 10.23L18.88 10.23Q18.95 10.32 19.06 10.46L19.06 10.46L19.06 10.46Q19.17 10.60 19.29 10.74L19.29 10.74L19.29 10.74Q19.40 10.89 19.49 11.01L19.49 11.01L19.49 11.01Q19.57 11.14 19.59 11.18L19.59 11.18L19.59 11.18Q19.59 11.48 19.49 11.77L19.49 11.77L19.49 11.77Q19.38 12.07 19.20 12.35L19.20 12.35L19.20 12.35Q19.61 12.33 19.96 12.14L19.96 12.14L19.96 12.14Q20.32 11.96 20.70 11.55L20.70 11.55L20.70 11.55Q20.76 11.61 20.86 11.72L20.86 11.72L20.86 11.72Q20.96 11.83 21.02 11.90L21.02 11.90L21.02 11.90Q20.73 12.20 20.46 12.40L20.46 12.40L20.46 12.40Q20.18 12.60 19.90 12.71L19.90 12.71L19.90 12.71Q19.63 12.83 19.34 12.88L19.34 12.88L19.34 12.88Q19.05 12.93 18.75 12.93L18.75 12.93L18.75 12.93Q18.52 13.18 18.25 13.38L18.25 13.38L18.25 13.38Q17.99 13.59 17.71 13.74L17.71 13.74L17.71 13.74Q17.43 13.89 17.16 13.97L17.16 13.97L17.16 13.97Q16.88 14.05 16.64 14.05L16.64 14.05L16.64 14.05Q16.43 14.05 16.21 13.93L16.21 13.93L16.21 13.93Q16.00 13.81 15.82 13.63L15.82 13.63L15.82 13.63Q15.64 13.45 15.52 13.24L15.52 13.24L15.52 13.24Q15.41 13.04 15.41 12.88L15.41 12.88L15.41 12.88Q15.41 12.36 15.55 11.85L15.55 11.85L15.55 11.85Q15.69 11.33 15.99 10.89L15.99 10.89L15.99 10.89Q16.28 10.44 16.74 10.10L16.74 10.10L16.74 10.10Q17.21 9.75 17.84 9.58L17.84 9.58L17.84 9.58Q17.86 9.56 17.91 9.56L17.91 9.56L17.91 9.56Q17.96 9.55 18.00 9.55L18.00 9.55L18.00 9.55Q18.09 9.55 18.20 9.62L18.20 9.62L18.20 9.62Q18.31 9.69 18.40 9.78L18.40 9.78L18.40 9.78Q18.49 9.87 18.55 9.96L18.55 9.96L18.55 9.96Q18.61 10.04 18.61 10.07L18.61 10.07L18.61 10.07Q18.60 10.10 18.51 10.15L18.51 10.15L18.51 10.15Q18.42 10.21 18.27 10.33L18.27 10.33L18.27 10.33Q18.12 10.45 17.92 10.68L17.92 10.68L17.92 10.68Q17.71 10.91 17.47 11.29L17.47 11.29L17.47 11.29Q17.10 11.84 16.97 12.29L16.97 12.29L16.97 12.29Q16.84 12.74 16.84 12.98ZM24.06 13.10L24.06 13.10L24.06 13.10Q24.08 13.15 24.12 13.21L24.12 13.21L24.12 13.21Q24.17 13.28 24.30 13.28L24.30 13.28L24.30 13.28Q24.38 13.28 24.53 13.18L24.53 13.18L24.53 13.18Q24.69 13.08 24.90 12.92L24.90 12.92L24.90 12.92Q25.10 12.76 25.33 12.57L25.33 12.57L25.33 12.57Q25.55 12.39 25.76 12.21L25.76 12.21L25.76 12.21Q25.96 12.02 26.13 11.88L26.13 11.88L26.13 11.88Q26.29 11.73 26.37 11.66L26.37 11.66L26.37 11.66Q26.43 11.72 26.52 11.82L26.52 11.82L26.52 11.82Q26.61 11.92 26.68 12.00L26.68 12.00L26.68 12.00Q26.53 12.15 26.30 12.37L26.30 12.37L26.30 12.37Q26.07 12.58 25.80 12.82L25.80 12.82L25.80 12.82Q25.53 13.05 25.23 13.28L25.23 13.28L25.23 13.28Q24.94 13.51 24.66 13.70L24.66 13.70L24.66 13.70Q24.39 13.88 24.15 14.00L24.15 14.00L24.15 14.00Q23.91 14.11 23.75 14.11L23.75 14.11L23.75 14.11Q23.32 14.11 23.00 13.99L23.00 13.99L23.00 13.99Q22.68 13.86 22.62 13.62L22.62 13.62L22.62 13.62Q22.57 13.43 22.51 13.23L22.51 13.23L22.51 13.23Q22.46 13.04 22.42 12.84L22.42 12.84L20.77 14.20L20.77 14.20Q20.72 14.20 20.63 14.16L20.63 14.16L20.63 14.16Q20.54 14.12 20.46 14.06L20.46 14.06L20.46 14.06Q20.37 14 20.31 13.95L20.31 13.95L20.31 13.95Q20.24 13.90 20.24 13.88L20.24 13.88L20.24 13.88Q20.24 13.86 20.25 13.84L20.25 13.84L20.25 13.84Q20.25 13.83 20.27 13.82L20.27 13.82L22.28 12.13L22.28 12.13Q22.18 11.64 22.12 11.26L22.12 11.26L22.12 11.26Q22.05 10.88 22.00 10.70L22.00 10.70L22.00 10.70Q21.96 10.77 21.84 10.94L21.84 10.94L21.84 10.94Q21.73 11.10 21.57 11.31L21.57 11.31L21.57 11.31Q21.42 11.51 21.22 11.73L21.22 11.73L21.22 11.73Q21.01 11.96 20.79 12.14L20.79 12.14L20.46 11.81L20.46 11.81Q20.92 11.33 21.21 10.92L21.21 10.92L21.21 10.92Q21.49 10.51 21.66 10.20L21.66 10.20L21.66 10.20Q21.83 9.90 21.91 9.72L21.91 9.72L21.91 9.72Q21.98 9.55 22.05 9.55L22.05 9.55L22.05 9.55Q22.18 9.55 22.38 9.58L22.38 9.58L22.38 9.58Q22.57 9.60 22.77 9.65L22.77 9.65L22.77 9.65Q22.98 9.70 23.15 9.77L23.15 9.77L23.15 9.77Q23.33 9.83 23.43 9.91L23.43 9.91L23.43 9.91Q23.45 9.98 23.51 10.28L23.51 10.28L23.51 10.28Q23.56 10.58 23.64 10.98L23.64 10.98L25.22 9.65L25.22 9.65Q25.30 9.59 25.35 9.59L25.35 9.59L25.35 9.59Q25.39 9.59 25.47 9.64L25.47 9.64L25.47 9.64Q25.56 9.69 25.65 9.75L25.65 9.75L25.65 9.75Q25.73 9.82 25.80 9.87L25.80 9.87L25.80 9.87Q25.86 9.93 25.85 9.95L25.85 9.95L25.85 9.95Q25.85 9.97 25.83 9.99L25.83 9.99L25.83 9.99Q25.81 10.01 25.63 10.16L25.63 10.16L25.63 10.16Q25.46 10.31 25.18 10.54L25.18 10.54L25.18 10.54Q24.90 10.78 24.53 11.08L24.53 11.08L24.53 11.08Q24.17 11.39 23.77 11.72L23.77 11.72L23.77 11.72Q23.82 11.97 23.86 12.21L23.86 12.21L23.86 12.21Q23.91 12.45 23.94 12.64L23.94 12.64L23.94 12.64Q23.98 12.82 24.01 12.95L24.01 12.95L24.01 12.95Q24.04 13.08 24.06 13.10ZM26.76 14.05L26.76 14.05L26.76 14.05Q26.66 14.05 26.50 13.98L26.50 13.98L26.50 13.98Q26.35 13.91 26.20 13.81L26.20 13.81L26.20 13.81Q26.06 13.70 25.96 13.57L25.96 13.57L25.96 13.57Q25.85 13.44 25.85 13.32L25.85 13.32L25.85 13.32Q25.92 13.02 26.04 12.63L26.04 12.63L26.04 12.63Q26.15 12.24 26.29 11.83L26.29 11.83L26.29 11.83Q26.42 11.43 26.57 11.04L26.57 11.04L26.57 11.04Q26.71 10.66 26.83 10.36L26.83 10.36L26.83 10.36Q26.95 10.06 27.04 9.87L27.04 9.87L27.04 9.87Q27.13 9.69 27.16 9.69L27.16 9.69L27.16 9.69Q27.20 9.69 27.36 9.78L27.36 9.78L27.36 9.78Q27.53 9.86 27.71 9.99L27.71 9.99L27.71 9.99Q27.89 10.12 28.03 10.26L28.03 10.26L28.03 10.26Q28.18 10.40 28.18 10.50L28.18 10.50L28.18 10.50Q28.18 10.52 28.17 10.55L28.17 10.55L28.17 10.55Q28.16 10.58 28.15 10.63L28.15 10.63L28.15 10.63Q28.10 10.80 28.01 11.03L28.01 11.03L28.01 11.03Q27.92 11.27 27.83 11.52L27.83 11.52L27.83 11.52Q27.73 11.76 27.64 12.01L27.64 12.01L27.64 12.01Q27.54 12.26 27.47 12.48L27.47 12.48L27.47 12.48Q27.39 12.70 27.34 12.87L27.34 12.87L27.34 12.87Q27.30 13.03 27.30 13.10L27.30 13.10L27.30 13.10Q27.30 13.15 27.34 13.15L27.34 13.15L27.34 13.15Q27.41 13.15 27.56 13.06L27.56 13.06L27.56 13.06Q27.71 12.97 27.91 12.82L27.91 12.82L27.91 12.82Q28.10 12.68 28.31 12.51L28.31 12.51L28.31 12.51Q28.53 12.34 28.72 12.17L28.72 12.17L28.72 12.17Q28.92 12.00 29.07 11.87L29.07 11.87L29.07 11.87Q29.23 11.73 29.31 11.66L29.31 11.66L29.31 11.66Q29.37 11.72 29.46 11.82L29.46 11.82L29.46 11.82Q29.54 11.92 29.62 12.00L29.62 12.00L29.62 12.00Q29.47 12.15 29.24 12.36L29.24 12.36L29.24 12.36Q29.02 12.58 28.76 12.80L28.76 12.80L28.76 12.80Q28.49 13.03 28.21 13.25L28.21 13.25L28.21 13.25Q27.92 13.48 27.66 13.66L27.66 13.66L27.66 13.66Q27.39 13.84 27.16 13.95L27.16 13.95L27.16 13.95Q26.93 14.05 26.76 14.05ZM29.47 7.60L29.47 7.60L29.47 7.60Q29.46 7.63 29.42 7.73L29.42 7.73L29.42 7.73Q29.37 7.84 29.31 7.98L29.31 7.98L29.31 7.98Q29.25 8.12 29.17 8.27L29.17 8.27L29.17 8.27Q29.09 8.43 29.02 8.56L29.02 8.56L29.02 8.56Q28.94 8.69 28.88 8.77L28.88 8.77L28.88 8.77Q28.81 8.86 28.77 8.86L28.77 8.86L28.77 8.86Q28.64 8.85 28.47 8.78L28.47 8.78L28.47 8.78Q28.29 8.72 28.13 8.63L28.13 8.63L28.13 8.63Q27.97 8.54 27.86 8.46L27.86 8.46L27.86 8.46Q27.75 8.38 27.75 8.35L27.75 8.35L27.75 8.35Q27.75 8.20 27.83 7.97L27.83 7.97L27.83 7.97Q27.91 7.75 28.02 7.53L28.02 7.53L28.02 7.53Q28.13 7.31 28.24 7.16L28.24 7.16L28.24 7.16Q28.36 7 28.42 7L28.42 7L28.42 7Q28.54 7 28.72 7.08L28.72 7.08L28.72 7.08Q28.90 7.16 29.06 7.26L29.06 7.26L29.06 7.26Q29.23 7.36 29.35 7.46L29.35 7.46L29.35 7.46Q29.47 7.56 29.47 7.60ZM33.09 13.08L33.09 13.08L33.09 13.08Q33.09 13.12 33.13 13.12L33.13 13.12L33.13 13.12Q33.20 13.12 33.34 13.03L33.34 13.03L33.34 13.03Q33.48 12.94 33.67 12.80L33.67 12.80L33.67 12.80Q33.85 12.67 34.06 12.50L34.06 12.50L34.06 12.50Q34.27 12.33 34.46 12.16L34.46 12.16L34.46 12.16Q34.65 12.00 34.81 11.86L34.81 11.86L34.81 11.86Q34.96 11.72 35.04 11.65L35.04 11.65L35.04 11.65Q35.10 11.71 35.19 11.81L35.19 11.81L35.19 11.81Q35.29 11.92 35.36 12.00L35.36 12.00L35.36 12.00Q35.20 12.15 34.97 12.36L34.97 12.36L34.97 12.36Q34.74 12.58 34.48 12.81L34.48 12.81L34.48 12.81Q34.21 13.04 33.93 13.27L33.93 13.27L33.93 13.27Q33.65 13.50 33.39 13.68L33.39 13.68L33.39 13.68Q33.12 13.86 32.88 13.97L32.88 13.97L32.88 13.97Q32.64 14.08 32.46 14.08L32.46 14.08L32.46 14.08Q32.34 14.08 32.19 14.03L32.19 14.03L32.19 14.03Q32.05 13.99 31.92 13.90L31.92 13.90L31.92 13.90Q31.80 13.82 31.72 13.70L31.72 13.70L31.72 13.70Q31.64 13.58 31.64 13.44L31.64 13.44L31.64 13.44Q31.64 13.38 31.63 13.31L31.63 13.31L31.63 13.31Q31.63 13.23 31.64 13.10L31.64 13.10L31.64 13.10Q31.66 12.97 31.70 12.79L31.70 12.79L31.70 12.79Q31.74 12.61 31.82 12.35L31.82 12.35L31.82 12.35Q31.60 12.58 31.29 12.84L31.29 12.84L31.29 12.84Q30.99 13.10 30.65 13.34L30.65 13.34L30.65 13.34Q30.32 13.57 29.98 13.76L29.98 13.76L29.98 13.76Q29.64 13.95 29.35 14.04L29.35 14.04L29.35 14.04Q29.32 14.05 29.30 14.05L29.30 14.05L29.30 14.05Q29.28 14.05 29.26 14.05L29.26 14.05L29.26 14.05Q29.19 14.05 29.08 13.99L29.08 13.99L29.08 13.99Q28.96 13.92 28.85 13.81L28.85 13.81L28.85 13.81Q28.75 13.69 28.67 13.55L28.67 13.55L28.67 13.55Q28.59 13.41 28.59 13.26L28.59 13.26L28.59 13.26Q28.59 13.22 28.63 12.99L28.63 12.99L28.63 12.99Q28.67 12.76 28.82 12.40L28.82 12.40L28.82 12.40Q28.98 12.04 29.28 11.59L29.28 11.59L29.28 11.59Q29.58 11.14 30.10 10.67L30.10 10.67L30.10 10.67Q30.37 10.43 30.67 10.22L30.67 10.22L30.67 10.22Q30.93 10.04 31.27 9.86L31.27 9.86L31.27 9.86Q31.60 9.67 31.97 9.56L31.97 9.56L31.97 9.56Q31.99 9.56 32.00 9.56L32.00 9.56L32.00 9.56Q32.01 9.55 32.03 9.56L32.03 9.56L32.03 9.56Q32.11 9.59 32.22 9.65L32.22 9.65L32.22 9.65Q32.33 9.71 32.45 9.77L32.45 9.77L32.45 9.77Q32.56 9.84 32.65 9.90L32.65 9.90L32.65 9.90Q32.73 9.97 32.76 10.01L32.76 10.01L32.76 10.01Q32.76 10.02 32.76 10.03L32.76 10.03L32.74 10.04L32.74 10.04Q32.44 10.21 32.16 10.41L32.16 10.41L32.16 10.41Q31.89 10.61 31.68 10.79L31.68 10.79L31.68 10.79Q31.43 11.00 31.22 11.20L31.22 11.20L31.22 11.20Q30.72 11.70 30.53 12.06L30.53 12.06L30.53 12.06Q30.34 12.41 30.34 12.57L30.34 12.57L30.34 12.57Q30.34 12.69 30.43 12.69L30.43 12.69L30.43 12.69Q30.53 12.69 30.68 12.61L30.68 12.61L30.68 12.61Q30.82 12.53 31.01 12.40L31.01 12.40L31.01 12.40Q31.19 12.26 31.41 12.08L31.41 12.08L31.41 12.08Q31.64 11.90 31.88 11.70L31.88 11.70L31.88 11.70Q32.09 11.53 32.29 11.33L32.29 11.33L32.29 11.33Q32.46 11.17 32.64 10.96L32.64 10.96L32.64 10.96Q32.83 10.75 32.96 10.53L32.96 10.53L32.96 10.53Q32.96 10.52 32.96 10.51L32.96 10.51L32.96 10.51Q32.97 10.51 32.98 10.51L32.98 10.51L32.98 10.51Q33.06 10.57 33.15 10.69L33.15 10.69L33.15 10.69Q33.25 10.82 33.33 10.97L33.33 10.97L33.33 10.97Q33.41 11.12 33.47 11.26L33.47 11.26L33.47 11.26Q33.53 11.40 33.53 11.48L33.53 11.48L33.53 11.48Q33.37 11.80 33.29 12.06L33.29 12.06L33.29 12.06Q33.20 12.33 33.16 12.52L33.16 12.52L33.16 12.52Q33.11 12.72 33.10 12.86L33.10 12.86L33.10 12.86Q33.09 13.00 33.09 13.08Z"></path></g><defs data-v-fde0c5aa=""><!----></defs><g data-v-fde0c5aa="" id="4d3b0fa6-2058-4d33-84c5-80391d9ae14a" stroke="none" fill="#81E291" transform="matrix(1.0952472686767578,0,0,1.0952472686767578,94.33296160600479,38.90475268073341)"><g clip-rule="evenodd"><path d="M12.983 10.59l17.018 88.223-5.872-59.049 29.021-1.892-.054-9.883L64.549 1 53.622 18.977z"></path><path d="M59.389 54.548l5.16-53.541-8.74 39.716-19.612 1.045 1.57 20.462-7.766 36.583 12.057-39.899z"></path><path d="M62.8 67.182l.549-10.453-15.979 3.755-.032 11.797-17.337 26.532 21.68-27.616zM65.711 62.394l14.841-4.731 1.509-12.532-15.899 2.095zM72.07 44.502l10.988-1.417 1.581-10.278-8.079-.373L64.549 1l8.43 30.967z"></path><path d="M87.413 31.294l1.256-9.506-9.544-2.694L64.549 1l14.483 22.437-.422 7z"></path></g></g><defs data-v-fde0c5aa=""><!----></defs><g data-v-fde0c5aa="" id="4ab19118-dc2b-4dc8-83cd-17b9ddc3087a" fill="#FFFFFF" transform="matrix(0.4367091655731201,0,0,0.4367091655731201,60.35452414162156,253.91664124290614)"><path d="M6.43 9.91C6.29 9.65 6.09 9.39 5.85 9.21C5.61 9.03 5.36 8.88 5.07 8.75C4.77 8.62 4.45 8.51 4.14 8.41C3.84 8.32 3.53 8.20 3.23 8.11C2.94 7.99 2.67 7.87 2.44 7.71C2.20 7.56 2.02 7.38 1.88 7.15C1.74 6.93 1.65 6.65 1.65 6.31C1.65 6.06 1.71 5.82 1.81 5.59C1.90 5.35 2.04 5.15 2.23 4.97C2.41 4.79 2.63 4.65 2.91 4.55C3.19 4.45 3.50 4.40 3.86 4.40C4.54 4.40 5.15 4.51 5.71 4.75C5.75 5.54 5.78 5.99 5.78 6.06C5.80 6.29 5.88 6.41 6.08 6.41L6.41 6.41L6.41 4.38C5.53 4.00 4.69 3.81 3.86 3.81C3.40 3.81 3.00 3.88 2.63 4.02C2.27 4.16 1.97 4.34 1.74 4.58C1.50 4.82 1.30 5.08 1.18 5.39C1.05 5.70 0.99 6.02 0.99 6.36C0.99 6.78 1.06 7.14 1.20 7.42C1.34 7.70 1.54 7.92 1.78 8.12C2.02 8.32 2.27 8.46 2.56 8.58C2.86 8.71 3.18 8.82 3.49 8.92C3.79 9.02 4.09 9.11 4.40 9.21C4.69 9.31 4.96 9.45 5.19 9.60C5.43 9.76 5.61 9.94 5.75 10.16C5.89 10.39 5.96 10.68 5.96 11.03C5.96 11.35 5.91 11.66 5.80 11.94C5.68 12.22 5.53 12.46 5.32 12.67C5.11 12.88 4.84 13.05 4.54 13.16C4.23 13.29 3.88 13.33 3.49 13.33C2.70 13.33 2.04 13.20 1.51 12.95C1.50 12.75 1.50 12.54 1.48 12.32C1.47 12.10 1.47 11.91 1.46 11.76C1.44 11.61 1.44 11.52 1.44 11.51C1.43 11.28 1.33 11.17 1.13 11.17L0.80 11.17L0.80 13.02L0.80 13.20L0.80 13.38C1.65 13.75 2.53 13.93 3.46 13.93C3.96 13.93 4.41 13.85 4.80 13.69C5.19 13.54 5.53 13.31 5.80 13.05C6.06 12.78 6.29 12.46 6.43 12.10C6.57 11.73 6.64 11.34 6.64 10.92C6.64 10.51 6.57 10.18 6.43 9.91ZM24.16 8.86C24.16 8.11 24.04 7.41 23.81 6.79C23.59 6.17 23.27 5.64 22.85 5.19C22.43 4.75 21.94 4.40 21.36 4.16C20.79 3.92 20.13 3.79 19.43 3.79C18.73 3.79 18.10 3.92 17.53 4.16C16.95 4.40 16.45 4.75 16.03 5.19C15.61 5.64 15.29 6.17 15.06 6.79C14.84 7.41 14.71 8.11 14.71 8.86C14.71 9.63 14.84 10.33 15.06 10.95C15.29 11.56 15.61 12.10 16.03 12.54C16.45 12.99 16.95 13.33 17.53 13.57C18.10 13.80 18.73 13.93 19.43 13.93C20.13 13.93 20.79 13.80 21.36 13.57C21.94 13.33 22.43 12.99 22.85 12.54C23.27 12.10 23.59 11.56 23.81 10.95C24.04 10.33 24.16 9.63 24.16 8.86ZM23.41 8.86C23.41 9.56 23.32 10.18 23.13 10.72C22.93 11.27 22.67 11.75 22.32 12.12C21.97 12.50 21.55 12.81 21.06 13.01C20.57 13.20 20.03 13.30 19.43 13.30C18.84 13.30 18.31 13.20 17.82 13.01C17.33 12.81 16.91 12.50 16.56 12.12C16.21 11.75 15.93 11.27 15.74 10.72C15.54 10.18 15.46 9.56 15.46 8.86C15.46 8.18 15.54 7.55 15.74 7.00C15.93 6.45 16.21 5.98 16.56 5.60C16.91 5.22 17.33 4.91 17.82 4.72C18.31 4.52 18.84 4.41 19.43 4.41C20.03 4.41 20.57 4.52 21.06 4.72C21.55 4.91 21.97 5.22 22.32 5.60C22.67 5.98 22.93 6.45 23.13 7.00C23.32 7.55 23.41 8.18 23.41 8.86ZM38.81 11.97C38.61 11.97 38.53 12.08 38.51 12.31C38.51 12.32 38.51 12.38 38.50 12.43C38.49 12.49 38.49 12.59 38.47 12.71C38.46 12.84 38.44 13.01 38.43 13.20L34.34 13.20L34.34 4.47C34.51 4.47 34.65 4.45 34.79 4.45C34.93 4.45 35.04 4.44 35.11 4.44L35.24 4.44C35.42 4.42 35.52 4.34 35.52 4.19L35.52 3.92L34.34 3.92L33.63 3.92L32.44 3.92L32.44 4.19C32.44 4.34 32.54 4.42 32.72 4.44L32.86 4.44C32.93 4.44 33.03 4.45 33.17 4.45C33.31 4.45 33.46 4.47 33.63 4.47L33.63 13.26C33.46 13.26 33.31 13.27 33.17 13.27C33.03 13.27 32.93 13.29 32.86 13.29L32.72 13.29C32.54 13.30 32.44 13.38 32.44 13.54L32.44 13.82L33.63 13.82L38.91 13.82L39.03 13.82L39.16 13.82L39.16 13.55L39.16 12.99L39.16 11.97L38.88 11.97ZM55.48 3.92L54.77 3.92L53.41 3.92L53.41 4.19C53.41 4.34 53.51 4.42 53.69 4.44L53.86 4.44C53.96 4.44 54.10 4.45 54.26 4.45C54.43 4.45 54.60 4.47 54.77 4.47L54.77 10.04C54.77 10.50 54.70 10.92 54.56 11.33C54.42 11.73 54.22 12.08 53.96 12.38C53.69 12.67 53.38 12.89 53.00 13.06C52.63 13.23 52.21 13.31 51.73 13.31C51.25 13.31 50.82 13.23 50.44 13.06C50.06 12.89 49.74 12.66 49.49 12.36C49.22 12.07 49.04 11.72 48.90 11.33C48.76 10.93 48.69 10.50 48.69 10.04L48.69 4.47C48.86 4.47 49.03 4.45 49.20 4.45C49.36 4.45 49.50 4.44 49.60 4.44L49.77 4.44C49.95 4.42 50.05 4.34 50.05 4.19L50.05 3.92L48.69 3.92L47.98 3.92L46.80 3.92L46.80 4.19C46.80 4.34 46.89 4.42 47.07 4.44L47.21 4.44C47.28 4.44 47.38 4.45 47.52 4.45C47.66 4.45 47.81 4.47 47.98 4.47L47.98 10.04C47.98 10.58 48.06 11.09 48.23 11.56C48.40 12.04 48.65 12.46 48.97 12.81C49.29 13.16 49.70 13.44 50.16 13.64C50.62 13.83 51.16 13.93 51.73 13.93C52.30 13.93 52.82 13.83 53.28 13.64C53.75 13.44 54.15 13.16 54.47 12.81C54.80 12.46 55.05 12.04 55.22 11.56C55.38 11.09 55.48 10.58 55.48 10.04L55.48 4.47C55.65 4.47 55.79 4.45 55.93 4.45C56.07 4.45 56.18 4.44 56.25 4.44L56.38 4.44C56.56 4.42 56.66 4.34 56.66 4.19L56.66 3.92ZM72.41 12.21C72.38 12.18 72.34 12.15 72.30 12.15C72.27 12.15 72.25 12.15 72.23 12.17C72.21 12.18 72.18 12.21 72.16 12.22C71.96 12.40 71.75 12.56 71.55 12.70C71.36 12.84 71.15 12.94 70.91 13.03C70.67 13.13 70.42 13.20 70.14 13.24C69.86 13.29 69.55 13.31 69.20 13.31C68.64 13.31 68.10 13.22 67.62 13.01C67.13 12.81 66.72 12.52 66.37 12.14C66.02 11.76 65.73 11.28 65.53 10.74C65.34 10.19 65.24 9.56 65.24 8.86C65.24 8.18 65.34 7.56 65.53 7.01C65.74 6.47 66.02 6.01 66.39 5.61C66.75 5.24 67.19 4.94 67.69 4.73C68.19 4.52 68.74 4.42 69.34 4.42C70.24 4.42 71.06 4.56 71.79 4.89C71.83 5.78 71.88 6.30 71.88 6.41C71.89 6.64 71.97 6.75 72.17 6.75L72.51 6.75L72.51 4.51C71.33 4.03 70.27 3.81 69.34 3.81C68.63 3.81 67.98 3.92 67.38 4.17C66.79 4.42 66.26 4.76 65.84 5.21C65.41 5.66 65.09 6.19 64.85 6.80C64.61 7.42 64.50 8.11 64.50 8.86C64.50 9.63 64.62 10.32 64.85 10.95C65.07 11.58 65.39 12.10 65.80 12.54C66.21 12.99 66.70 13.33 67.27 13.57C67.84 13.80 68.46 13.93 69.15 13.93C69.55 13.93 69.93 13.90 70.28 13.83C70.62 13.76 70.94 13.66 71.23 13.54C71.51 13.41 71.78 13.26 72.02 13.09C72.25 12.91 72.48 12.73 72.69 12.50ZM83.51 4.44C83.69 4.42 83.78 4.34 83.78 4.19L83.78 3.91L82.60 3.91L81.89 3.91L80.70 3.91L80.70 4.19C80.70 4.34 80.79 4.42 80.98 4.44L81.12 4.44C81.19 4.44 81.28 4.45 81.42 4.45C81.56 4.45 81.72 4.47 81.89 4.47L81.89 13.26C81.72 13.26 81.56 13.27 81.42 13.27C81.28 13.27 81.19 13.29 81.12 13.29L80.98 13.29C80.79 13.30 80.70 13.38 80.70 13.54L80.70 13.82L81.89 13.82L82.60 13.82L83.78 13.82L83.78 13.54C83.78 13.38 83.69 13.30 83.51 13.29L83.37 13.29C83.30 13.29 83.20 13.27 83.06 13.27C82.92 13.27 82.77 13.26 82.60 13.26L82.60 4.47C82.77 4.47 82.92 4.45 83.06 4.45C83.20 4.45 83.30 4.44 83.37 4.44ZM101.39 8.86C101.39 8.11 101.26 7.41 101.04 6.79C100.81 6.17 100.49 5.64 100.07 5.19C99.65 4.75 99.16 4.40 98.59 4.16C98.01 3.92 97.36 3.79 96.66 3.79C95.96 3.79 95.33 3.92 94.75 4.16C94.18 4.40 93.67 4.75 93.25 5.19C92.83 5.64 92.51 6.17 92.29 6.79C92.06 7.41 91.94 8.11 91.94 8.86C91.94 9.63 92.06 10.33 92.29 10.95C92.51 11.56 92.83 12.10 93.25 12.54C93.67 12.99 94.18 13.33 94.75 13.57C95.33 13.80 95.96 13.93 96.66 13.93C97.36 13.93 98.01 13.80 98.59 13.57C99.16 13.33 99.65 12.99 100.07 12.54C100.49 12.10 100.81 11.56 101.04 10.95C101.26 10.33 101.39 9.63 101.39 8.86ZM100.63 8.86C100.63 9.56 100.55 10.18 100.35 10.72C100.16 11.27 99.89 11.75 99.54 12.12C99.19 12.50 98.77 12.81 98.28 13.01C97.79 13.20 97.26 13.30 96.66 13.30C96.07 13.30 95.54 13.20 95.05 13.01C94.56 12.81 94.14 12.50 93.79 12.12C93.44 11.75 93.16 11.27 92.96 10.72C92.76 10.18 92.68 9.56 92.68 8.86C92.68 8.18 92.76 7.55 92.96 7.00C93.16 6.45 93.44 5.98 93.79 5.60C94.14 5.22 94.56 4.91 95.05 4.72C95.54 4.52 96.07 4.41 96.66 4.41C97.26 4.41 97.79 4.52 98.28 4.72C98.77 4.91 99.19 5.22 99.54 5.60C99.89 5.98 100.16 6.45 100.35 7.00C100.55 7.55 100.63 8.18 100.63 8.86ZM118.22 3.92L117.59 3.92L116.37 3.92L116.37 4.19C116.37 4.34 116.47 4.42 116.65 4.44L116.79 4.44C116.86 4.44 116.97 4.45 117.11 4.45C117.25 4.45 117.42 4.47 117.59 4.47L117.59 12.22C117.59 12.35 117.59 12.49 117.60 12.63L111.19 4.05C111.15 3.99 111.12 3.95 111.08 3.93C111.03 3.92 110.99 3.91 110.92 3.91L110.57 3.91L109.38 3.91L109.38 4.19C109.38 4.34 109.48 4.42 109.66 4.44L109.80 4.44C109.87 4.44 109.97 4.45 110.11 4.45C110.25 4.45 110.40 4.47 110.57 4.47L110.57 13.26C110.40 13.26 110.25 13.27 110.11 13.27C109.97 13.27 109.87 13.29 109.80 13.29L109.66 13.29C109.48 13.30 109.38 13.38 109.38 13.54L109.38 13.82L110.57 13.82L111.19 13.82L112.41 13.82L112.41 13.54C112.41 13.38 112.31 13.30 112.13 13.29L111.99 13.29C111.92 13.29 111.79 13.27 111.65 13.27C111.51 13.27 111.36 13.26 111.19 13.26L111.19 5.49C111.19 5.36 111.19 5.22 111.17 5.08L117.61 13.68C117.68 13.78 117.75 13.82 117.87 13.82L118.22 13.82L118.22 4.47C118.38 4.47 118.52 4.45 118.66 4.45C118.80 4.45 118.92 4.44 118.99 4.44L119.11 4.44C119.29 4.42 119.39 4.34 119.39 4.19L119.39 3.92ZM128.62 3.92L127.43 3.92L127.43 4.19C127.43 4.34 127.53 4.42 127.71 4.44L127.85 4.44C127.92 4.44 128.02 4.45 128.16 4.45C128.30 4.45 128.45 4.47 128.62 4.47L128.62 13.26C128.45 13.26 128.30 13.27 128.16 13.27C128.02 13.27 127.92 13.29 127.85 13.29L127.71 13.29C127.53 13.30 127.44 13.38 127.44 13.54L127.44 13.82L128.62 13.82L134.55 13.82L134.55 13.22L134.55 11.76L134.20 11.76C134.01 11.76 133.92 11.89 133.91 12.11C133.91 12.14 133.90 12.19 133.90 12.29C133.90 12.39 133.90 12.53 133.88 12.74C133.87 12.95 133.85 13.09 133.85 13.22L129.33 13.22L129.33 9.09L133.28 9.09L133.28 8.51L129.33 8.51L129.33 4.51L133.85 4.51C133.88 5.12 133.91 5.50 133.91 5.63C133.92 5.85 134.01 5.96 134.20 5.96L134.55 5.96L134.55 4.51L134.55 3.92ZM148.86 9.91C148.72 9.65 148.53 9.39 148.29 9.21C148.05 9.03 147.80 8.88 147.50 8.75C147.21 8.62 146.89 8.51 146.58 8.41C146.27 8.32 145.96 8.20 145.67 8.11C145.38 7.99 145.11 7.87 144.87 7.71C144.63 7.56 144.45 7.38 144.31 7.15C144.17 6.93 144.09 6.65 144.09 6.31C144.09 6.06 144.14 5.82 144.24 5.59C144.34 5.35 144.48 5.15 144.66 4.97C144.84 4.79 145.07 4.65 145.35 4.55C145.63 4.45 145.94 4.40 146.30 4.40C146.97 4.40 147.59 4.51 148.15 4.75C148.19 5.54 148.22 5.99 148.22 6.06C148.23 6.29 148.32 6.41 148.51 6.41L148.85 6.41L148.85 4.38C147.97 4.00 147.13 3.81 146.30 3.81C145.84 3.81 145.43 3.88 145.07 4.02C144.70 4.16 144.41 4.34 144.17 4.58C143.93 4.82 143.74 5.08 143.61 5.39C143.49 5.70 143.43 6.02 143.43 6.36C143.43 6.78 143.50 7.14 143.64 7.42C143.78 7.70 143.98 7.92 144.21 8.12C144.45 8.32 144.70 8.46 145.00 8.58C145.29 8.71 145.61 8.82 145.92 8.92C146.23 9.02 146.52 9.11 146.83 9.21C147.13 9.31 147.39 9.45 147.63 9.60C147.87 9.76 148.05 9.94 148.19 10.16C148.33 10.39 148.40 10.68 148.40 11.03C148.40 11.35 148.34 11.66 148.23 11.94C148.12 12.22 147.97 12.46 147.76 12.67C147.55 12.88 147.28 13.05 146.97 13.16C146.66 13.29 146.31 13.33 145.92 13.33C145.14 13.33 144.48 13.20 143.95 12.95C143.93 12.75 143.93 12.54 143.92 12.32C143.91 12.10 143.91 11.91 143.89 11.76C143.88 11.61 143.88 11.52 143.88 11.51C143.86 11.28 143.77 11.17 143.57 11.17L143.23 11.17L143.23 13.02L143.23 13.20L143.23 13.38C144.09 13.75 144.97 13.93 145.89 13.93C146.40 13.93 146.85 13.85 147.24 13.69C147.63 13.54 147.97 13.31 148.23 13.05C148.50 12.78 148.72 12.46 148.86 12.10C149.00 11.73 149.07 11.34 149.07 10.92C149.07 10.51 149.00 10.18 148.86 9.91ZM174.82 9.52C174.40 9.11 173.80 8.86 173.01 8.75C173.33 8.67 173.61 8.55 173.87 8.40C174.12 8.25 174.34 8.08 174.51 7.87C174.68 7.66 174.82 7.43 174.90 7.20C174.99 6.96 175.04 6.71 175.04 6.44C175.04 6.05 174.96 5.68 174.83 5.38C174.71 5.07 174.50 4.80 174.23 4.58C173.96 4.37 173.63 4.20 173.21 4.09C172.79 3.98 172.30 3.92 171.74 3.92L168.90 3.92L167.71 3.92L167.71 4.19C167.71 4.34 167.80 4.42 167.99 4.44L168.13 4.44C168.20 4.44 168.29 4.45 168.43 4.45C168.57 4.45 168.73 4.47 168.90 4.47L168.90 13.26C168.73 13.26 168.57 13.27 168.43 13.27C168.29 13.27 168.20 13.29 168.13 13.29L167.99 13.29C167.80 13.30 167.72 13.38 167.72 13.54L167.72 13.82L168.90 13.82L172.10 13.82C172.63 13.82 173.10 13.76 173.52 13.64C173.94 13.51 174.29 13.34 174.57 13.10C174.85 12.87 175.07 12.59 175.22 12.25C175.38 11.91 175.45 11.54 175.45 11.12C175.45 10.46 175.24 9.93 174.82 9.52ZM169.61 4.48L171.74 4.48C172.62 4.48 173.28 4.66 173.70 5.00C174.12 5.35 174.33 5.84 174.33 6.51C174.33 6.76 174.29 7.03 174.19 7.27C174.09 7.50 173.94 7.71 173.73 7.91C173.52 8.11 173.25 8.26 172.93 8.37C172.61 8.48 172.21 8.55 171.75 8.55L169.61 8.55ZM174.06 12.68C173.61 13.06 172.96 13.24 172.09 13.24L169.61 13.24L169.61 9.07L172.10 9.07C172.52 9.07 172.89 9.11 173.21 9.21C173.53 9.31 173.81 9.45 174.03 9.62C174.26 9.80 174.43 10.00 174.55 10.25C174.66 10.50 174.73 10.79 174.73 11.10C174.73 11.79 174.51 12.31 174.06 12.68ZM192.93 13.22L192.47 13.17L188.69 3.91L187.98 3.91L184.18 13.17L183.74 13.22C183.55 13.23 183.47 13.33 183.47 13.50L183.47 13.82L183.92 13.82L184.21 13.82L184.46 13.82L184.56 13.82L185.88 13.82L185.88 13.50C185.88 13.31 185.77 13.23 185.56 13.22C185.54 13.22 185.51 13.20 185.47 13.20C185.43 13.20 185.37 13.19 185.28 13.19C185.18 13.19 185.05 13.19 184.91 13.17L185.89 10.75L185.96 10.57L190.69 10.57L190.76 10.75L191.74 13.17C191.60 13.19 191.49 13.19 191.39 13.19C191.30 13.19 191.23 13.20 191.18 13.20C191.14 13.20 191.11 13.22 191.10 13.22C190.89 13.23 190.78 13.31 190.78 13.50L190.78 13.82L192.09 13.82L192.19 13.82L192.46 13.82L192.74 13.82L193.20 13.82L193.20 13.50C193.20 13.33 193.12 13.23 192.93 13.22ZM188.13 5.22C188.16 5.14 188.20 5.04 188.23 4.94C188.26 4.84 188.30 4.75 188.33 4.63C188.36 4.75 188.40 4.84 188.43 4.94C188.45 5.04 188.50 5.12 188.52 5.21L190.48 10.04L186.19 10.04ZM207.16 9.91C207.02 9.65 206.82 9.39 206.58 9.21C206.35 9.03 206.09 8.88 205.80 8.75C205.51 8.62 205.18 8.51 204.88 8.41C204.57 8.32 204.26 8.20 203.97 8.11C203.67 7.99 203.41 7.87 203.17 7.71C202.93 7.56 202.75 7.38 202.61 7.15C202.47 6.93 202.38 6.65 202.38 6.31C202.38 6.06 202.44 5.82 202.54 5.59C202.64 5.35 202.78 5.15 202.96 4.97C203.14 4.79 203.36 4.65 203.64 4.55C203.92 4.45 204.23 4.40 204.60 4.40C205.27 4.40 205.88 4.51 206.44 4.75C206.49 5.54 206.51 5.99 206.51 6.06C206.53 6.29 206.61 6.41 206.81 6.41L207.14 6.41L207.14 4.38C206.26 4.00 205.42 3.81 204.60 3.81C204.13 3.81 203.73 3.88 203.36 4.02C203 4.16 202.71 4.34 202.47 4.58C202.23 4.82 202.03 5.08 201.91 5.39C201.78 5.70 201.73 6.02 201.73 6.36C201.73 6.78 201.80 7.14 201.94 7.42C202.08 7.70 202.27 7.92 202.51 8.12C202.75 8.32 203 8.46 203.29 8.58C203.59 8.71 203.91 8.82 204.22 8.92C204.53 9.02 204.82 9.11 205.13 9.21C205.42 9.31 205.69 9.45 205.93 9.60C206.16 9.76 206.35 9.94 206.49 10.16C206.63 10.39 206.70 10.68 206.70 11.03C206.70 11.35 206.64 11.66 206.53 11.94C206.42 12.22 206.26 12.46 206.05 12.67C205.84 12.88 205.58 13.05 205.27 13.16C204.96 13.29 204.61 13.33 204.22 13.33C203.43 13.33 202.78 13.20 202.24 12.95C202.23 12.75 202.23 12.54 202.22 12.32C202.20 12.10 202.20 11.91 202.19 11.76C202.17 11.61 202.17 11.52 202.17 11.51C202.16 11.28 202.06 11.17 201.87 11.17L201.53 11.17L201.53 13.02L201.53 13.20L201.53 13.38C202.38 13.75 203.27 13.93 204.19 13.93C204.69 13.93 205.14 13.85 205.53 13.69C205.93 13.54 206.26 13.31 206.53 13.05C206.79 12.78 207.02 12.46 207.16 12.10C207.30 11.73 207.37 11.34 207.37 10.92C207.37 10.51 207.30 10.18 207.16 9.91ZM224.92 13.22L224.46 13.17L220.68 3.91L219.97 3.91L216.17 13.17L215.73 13.22C215.54 13.23 215.46 13.33 215.46 13.50L215.46 13.82L215.91 13.82L216.20 13.82L216.45 13.82L216.55 13.82L217.87 13.82L217.87 13.50C217.87 13.31 217.76 13.23 217.55 13.22C217.53 13.22 217.50 13.20 217.46 13.20C217.42 13.20 217.36 13.19 217.27 13.19C217.17 13.19 217.04 13.19 216.90 13.17L217.88 10.75L217.95 10.57L222.68 10.57L222.75 10.75L223.73 13.17C223.59 13.19 223.48 13.19 223.38 13.19C223.29 13.19 223.22 13.20 223.17 13.20C223.13 13.20 223.10 13.22 223.09 13.22C222.88 13.23 222.77 13.31 222.77 13.50L222.77 13.82L224.08 13.82L224.18 13.82L224.45 13.82L224.73 13.82L225.19 13.82L225.19 13.50C225.19 13.33 225.11 13.23 224.92 13.22ZM220.12 5.22C220.15 5.14 220.19 5.04 220.22 4.94C220.25 4.84 220.29 4.75 220.32 4.63C220.35 4.75 220.39 4.84 220.42 4.94C220.44 5.04 220.49 5.12 220.51 5.21L222.47 10.04L218.18 10.04ZM242.42 6.80C242.20 6.19 241.88 5.68 241.46 5.25C241.04 4.82 240.55 4.48 239.97 4.26C239.40 4.03 238.74 3.92 238.04 3.92L234.61 3.92L233.42 3.92L233.42 4.19C233.42 4.34 233.52 4.42 233.70 4.44L233.84 4.44C233.91 4.44 234.01 4.45 234.15 4.45C234.29 4.45 234.44 4.47 234.61 4.47L234.61 13.26C234.44 13.26 234.29 13.27 234.15 13.27C234.01 13.27 233.91 13.29 233.84 13.29L233.70 13.29C233.52 13.30 233.42 13.38 233.42 13.54L233.42 13.82L234.61 13.82L238.04 13.82C238.74 13.82 239.40 13.71 239.97 13.48C240.55 13.26 241.04 12.92 241.46 12.49C241.88 12.05 242.20 11.54 242.42 10.92C242.65 10.30 242.77 9.63 242.77 8.86C242.77 8.11 242.65 7.42 242.42 6.80ZM241.74 10.72C241.54 11.27 241.29 11.72 240.94 12.10C240.59 12.47 240.17 12.75 239.68 12.95C239.19 13.15 238.64 13.24 238.04 13.24L235.33 13.24L235.33 4.49L238.04 4.49C238.64 4.49 239.19 4.59 239.68 4.79C240.17 4.98 240.59 5.26 240.94 5.64C241.29 6.02 241.54 6.47 241.74 7.01C241.93 7.56 242.03 8.18 242.03 8.86C242.03 9.56 241.93 10.18 241.74 10.72ZM259.73 13.22L259.27 13.17L255.49 3.91L254.77 3.91L250.98 13.17L250.53 13.22C250.35 13.23 250.26 13.33 250.26 13.50L250.26 13.82L250.71 13.82L251.01 13.82L251.26 13.82L251.36 13.82L252.67 13.82L252.67 13.50C252.67 13.31 252.56 13.23 252.35 13.22C252.34 13.22 252.31 13.20 252.27 13.20C252.22 13.20 252.17 13.19 252.07 13.19C251.97 13.19 251.85 13.19 251.71 13.17L252.69 10.75L252.76 10.57L257.49 10.57L257.56 10.75L258.54 13.17C258.40 13.19 258.29 13.19 258.19 13.19C258.09 13.19 258.02 13.20 257.98 13.20C257.94 13.20 257.91 13.22 257.89 13.22C257.68 13.23 257.57 13.31 257.57 13.50L257.57 13.82L258.89 13.82L258.99 13.82L259.25 13.82L259.53 13.82L259.99 13.82L259.99 13.50C259.99 13.33 259.91 13.23 259.73 13.22ZM254.93 5.22C254.95 5.14 255.00 5.04 255.02 4.94C255.05 4.84 255.09 4.75 255.12 4.63C255.15 4.75 255.19 4.84 255.22 4.94C255.25 5.04 255.29 5.12 255.32 5.21L257.28 10.04L252.98 10.04ZM273.95 9.91C273.81 9.65 273.62 9.39 273.38 9.21C273.14 9.03 272.89 8.88 272.59 8.75C272.30 8.62 271.98 8.51 271.67 8.41C271.36 8.32 271.05 8.20 270.76 8.11C270.47 7.99 270.20 7.87 269.96 7.71C269.72 7.56 269.54 7.38 269.40 7.15C269.26 6.93 269.18 6.65 269.18 6.31C269.18 6.06 269.23 5.82 269.33 5.59C269.43 5.35 269.57 5.15 269.75 4.97C269.93 4.79 270.16 4.65 270.44 4.55C270.72 4.45 271.03 4.40 271.39 4.40C272.06 4.40 272.68 4.51 273.24 4.75C273.28 5.54 273.31 5.99 273.31 6.06C273.32 6.29 273.41 6.41 273.60 6.41L273.94 6.41L273.94 4.38C273.06 4.00 272.22 3.81 271.39 3.81C270.93 3.81 270.52 3.88 270.16 4.02C269.79 4.16 269.50 4.34 269.26 4.58C269.02 4.82 268.83 5.08 268.70 5.39C268.58 5.70 268.52 6.02 268.52 6.36C268.52 6.78 268.59 7.14 268.73 7.42C268.87 7.70 269.07 7.92 269.30 8.12C269.54 8.32 269.79 8.46 270.09 8.58C270.38 8.71 270.70 8.82 271.01 8.92C271.32 9.02 271.61 9.11 271.92 9.21C272.22 9.31 272.48 9.45 272.72 9.60C272.96 9.76 273.14 9.94 273.28 10.16C273.42 10.39 273.49 10.68 273.49 11.03C273.49 11.35 273.43 11.66 273.32 11.94C273.21 12.22 273.06 12.46 272.85 12.67C272.64 12.88 272.37 13.05 272.06 13.16C271.75 13.29 271.40 13.33 271.01 13.33C270.23 13.33 269.57 13.20 269.04 12.95C269.02 12.75 269.02 12.54 269.01 12.32C269.00 12.10 269.00 11.91 268.98 11.76C268.97 11.61 268.97 11.52 268.97 11.51C268.95 11.28 268.86 11.17 268.66 11.17L268.32 11.17L268.32 13.02L268.32 13.20L268.32 13.38C269.18 13.75 270.06 13.93 270.98 13.93C271.49 13.93 271.94 13.85 272.33 13.69C272.72 13.54 273.06 13.31 273.32 13.05C273.59 12.78 273.81 12.46 273.95 12.10C274.09 11.73 274.16 11.34 274.16 10.92C274.16 10.51 274.09 10.18 273.95 9.91ZM293.99 3.92L292.80 3.92L292.80 4.19C292.80 4.34 292.89 4.42 293.08 4.44L293.22 4.44C293.29 4.44 293.38 4.45 293.52 4.45C293.66 4.45 293.82 4.47 293.99 4.47L293.99 13.26C293.82 13.26 293.66 13.27 293.52 13.27C293.38 13.27 293.29 13.29 293.22 13.29L293.08 13.29C292.89 13.30 292.81 13.38 292.81 13.54L292.81 13.82L293.99 13.82L299.92 13.82L299.92 13.22L299.92 11.76L299.57 11.76C299.38 11.76 299.29 11.89 299.28 12.11C299.28 12.14 299.26 12.19 299.26 12.29C299.26 12.39 299.26 12.53 299.25 12.74C299.24 12.95 299.22 13.09 299.22 13.22L294.70 13.22L294.70 9.09L298.65 9.09L298.65 8.51L294.70 8.51L294.70 4.51L299.22 4.51C299.25 5.12 299.28 5.50 299.28 5.63C299.29 5.85 299.38 5.96 299.57 5.96L299.92 5.96L299.92 4.51L299.92 3.92ZM317.34 3.92L316.71 3.92L315.49 3.92L315.49 4.19C315.49 4.34 315.59 4.42 315.77 4.44L315.91 4.44C315.98 4.44 316.09 4.45 316.23 4.45C316.37 4.45 316.54 4.47 316.71 4.47L316.71 12.22C316.71 12.35 316.71 12.49 316.72 12.63L310.31 4.05C310.27 3.99 310.24 3.95 310.20 3.93C310.16 3.92 310.11 3.91 310.04 3.91L309.69 3.91L308.50 3.91L308.50 4.19C308.50 4.34 308.60 4.42 308.78 4.44L308.92 4.44C308.99 4.44 309.09 4.45 309.23 4.45C309.37 4.45 309.53 4.47 309.69 4.47L309.69 13.26C309.53 13.26 309.37 13.27 309.23 13.27C309.09 13.27 308.99 13.29 308.92 13.29L308.78 13.29C308.60 13.30 308.50 13.38 308.50 13.54L308.50 13.82L309.69 13.82L310.31 13.82L311.53 13.82L311.53 13.54C311.53 13.38 311.43 13.30 311.25 13.29L311.11 13.29C311.04 13.29 310.91 13.27 310.77 13.27C310.63 13.27 310.48 13.26 310.31 13.26L310.31 5.49C310.31 5.36 310.31 5.22 310.30 5.08L316.74 13.68C316.81 13.78 316.88 13.82 316.99 13.82L317.34 13.82L317.34 4.47C317.51 4.47 317.65 4.45 317.79 4.45C317.93 4.45 318.04 4.44 318.11 4.44L318.23 4.44C318.42 4.42 318.51 4.34 318.51 4.19L318.51 3.92ZM345.93 6.80C345.70 6.19 345.38 5.68 344.96 5.25C344.54 4.82 344.05 4.48 343.48 4.26C342.90 4.03 342.24 3.92 341.54 3.92L338.11 3.92L336.92 3.92L336.92 4.19C336.92 4.34 337.02 4.42 337.20 4.44L337.34 4.44C337.41 4.44 337.51 4.45 337.65 4.45C337.79 4.45 337.95 4.47 338.11 4.47L338.11 13.26C337.95 13.26 337.79 13.27 337.65 13.27C337.51 13.27 337.41 13.29 337.34 13.29L337.20 13.29C337.02 13.30 336.92 13.38 336.92 13.54L336.92 13.82L338.11 13.82L341.54 13.82C342.24 13.82 342.90 13.71 343.48 13.48C344.05 13.26 344.54 12.92 344.96 12.49C345.38 12.05 345.70 11.54 345.93 10.92C346.15 10.30 346.28 9.63 346.28 8.86C346.28 8.11 346.15 7.42 345.93 6.80ZM345.24 10.72C345.04 11.27 344.79 11.72 344.44 12.10C344.09 12.47 343.67 12.75 343.18 12.95C342.69 13.15 342.15 13.24 341.54 13.24L338.83 13.24L338.83 4.49L341.54 4.49C342.15 4.49 342.69 4.59 343.18 4.79C343.67 4.98 344.09 5.26 344.44 5.64C344.79 6.02 345.04 6.47 345.24 7.01C345.44 7.56 345.53 8.18 345.53 8.86C345.53 9.56 345.44 10.18 345.24 10.72ZM363.23 13.22L362.77 13.17L358.99 3.91L358.27 3.91L354.48 13.17L354.03 13.22C353.85 13.23 353.77 13.33 353.77 13.50L353.77 13.82L354.21 13.82L354.51 13.82L354.76 13.82L354.86 13.82L356.17 13.82L356.17 13.50C356.17 13.31 356.06 13.23 355.85 13.22C355.84 13.22 355.81 13.20 355.77 13.20C355.73 13.20 355.67 13.19 355.57 13.19C355.47 13.19 355.35 13.19 355.21 13.17L356.19 10.75L356.26 10.57L360.99 10.57L361.06 10.75L362.04 13.17C361.90 13.19 361.79 13.19 361.69 13.19C361.59 13.19 361.52 13.20 361.48 13.20C361.44 13.20 361.41 13.22 361.40 13.22C361.19 13.23 361.07 13.31 361.07 13.50L361.07 13.82L362.39 13.82L362.49 13.82L362.75 13.82L363.03 13.82L363.50 13.82L363.50 13.50C363.50 13.33 363.41 13.23 363.23 13.22ZM358.43 5.22C358.46 5.14 358.50 5.04 358.53 4.94C358.55 4.84 358.60 4.75 358.62 4.63C358.65 4.75 358.69 4.84 358.72 4.94C358.75 5.04 358.79 5.12 358.82 5.21L360.78 10.04L356.48 10.04ZM378.15 3.92L377.96 3.92L370.66 3.92L370.45 3.92L370.36 3.92L370.36 5.96L370.71 5.96C370.90 5.96 370.99 5.85 371.00 5.63C371.00 5.53 371.03 5.17 371.06 4.52L373.95 4.52L373.95 13.26C373.79 13.26 373.65 13.27 373.51 13.27C373.37 13.27 373.25 13.29 373.18 13.29L373.06 13.29C372.88 13.30 372.78 13.38 372.78 13.54L372.78 13.82L373.95 13.82L374.67 13.82L375.86 13.82L375.86 13.54C375.86 13.38 375.76 13.30 375.58 13.29L375.44 13.29C375.37 13.29 375.27 13.27 375.13 13.27C374.99 13.27 374.84 13.26 374.67 13.26L374.67 4.52L377.55 4.52C377.59 5.24 377.61 5.60 377.61 5.63C377.62 5.85 377.72 5.96 377.92 5.96L378.25 5.96L378.25 3.92ZM395.54 8.86C395.54 8.11 395.42 7.41 395.19 6.79C394.97 6.17 394.65 5.64 394.23 5.19C393.81 4.75 393.32 4.40 392.74 4.16C392.17 3.92 391.51 3.79 390.81 3.79C390.11 3.79 389.48 3.92 388.91 4.16C388.33 4.40 387.83 4.75 387.41 5.19C386.99 5.64 386.67 6.17 386.44 6.79C386.22 7.41 386.09 8.11 386.09 8.86C386.09 9.63 386.22 10.33 386.44 10.95C386.67 11.56 386.99 12.10 387.41 12.54C387.83 12.99 388.33 13.33 388.91 13.57C389.48 13.80 390.11 13.93 390.81 13.93C391.51 13.93 392.17 13.80 392.74 13.57C393.32 13.33 393.81 12.99 394.23 12.54C394.65 12.10 394.97 11.56 395.19 10.95C395.42 10.33 395.54 9.63 395.54 8.86ZM394.79 8.86C394.79 9.56 394.70 10.18 394.51 10.72C394.31 11.27 394.04 11.75 393.69 12.12C393.34 12.50 392.92 12.81 392.43 13.01C391.94 13.20 391.41 13.30 390.81 13.30C390.22 13.30 389.69 13.20 389.20 13.01C388.71 12.81 388.29 12.50 387.94 12.12C387.59 11.75 387.31 11.27 387.11 10.72C386.92 10.18 386.83 9.56 386.83 8.86C386.83 8.18 386.92 7.55 387.11 7.00C387.31 6.45 387.59 5.98 387.94 5.60C388.29 5.22 388.71 4.91 389.20 4.72C389.69 4.52 390.22 4.41 390.81 4.41C391.41 4.41 391.94 4.52 392.43 4.72C392.92 4.91 393.34 5.22 393.69 5.60C394.04 5.98 394.31 6.45 394.51 7.00C394.70 7.55 394.79 8.18 394.79 8.86ZM409.54 9.91C409.40 9.65 409.21 9.39 408.97 9.21C408.73 9.03 408.48 8.88 408.18 8.75C407.89 8.62 407.57 8.51 407.26 8.41C406.95 8.32 406.64 8.20 406.35 8.11C406.06 7.99 405.79 7.87 405.55 7.71C405.31 7.56 405.13 7.38 404.99 7.15C404.85 6.93 404.77 6.65 404.77 6.31C404.77 6.06 404.82 5.82 404.92 5.59C405.02 5.35 405.16 5.15 405.34 4.97C405.52 4.79 405.75 4.65 406.03 4.55C406.31 4.45 406.62 4.40 406.98 4.40C407.65 4.40 408.27 4.51 408.83 4.75C408.87 5.54 408.90 5.99 408.90 6.06C408.91 6.29 409.00 6.41 409.19 6.41L409.53 6.41L409.53 4.38C408.65 4.00 407.81 3.81 406.98 3.81C406.52 3.81 406.11 3.88 405.75 4.02C405.38 4.16 405.09 4.34 404.85 4.58C404.61 4.82 404.42 5.08 404.29 5.39C404.17 5.70 404.11 6.02 404.11 6.36C404.11 6.78 404.18 7.14 404.32 7.42C404.46 7.70 404.66 7.92 404.89 8.12C405.13 8.32 405.38 8.46 405.68 8.58C405.97 8.71 406.29 8.82 406.60 8.92C406.91 9.02 407.20 9.11 407.51 9.21C407.81 9.31 408.07 9.45 408.31 9.60C408.55 9.76 408.73 9.94 408.87 10.16C409.01 10.39 409.08 10.68 409.08 11.03C409.08 11.35 409.02 11.66 408.91 11.94C408.80 12.22 408.65 12.46 408.44 12.67C408.23 12.88 407.96 13.05 407.65 13.16C407.34 13.29 406.99 13.33 406.60 13.33C405.82 13.33 405.16 13.20 404.63 12.95C404.61 12.75 404.61 12.54 404.60 12.32C404.59 12.10 404.59 11.91 404.57 11.76C404.56 11.61 404.56 11.52 404.56 11.51C404.54 11.28 404.45 11.17 404.25 11.17L403.91 11.17L403.91 13.02L403.91 13.20L403.91 13.38C404.77 13.75 405.65 13.93 406.57 13.93C407.08 13.93 407.53 13.85 407.92 13.69C408.31 13.54 408.65 13.31 408.91 13.05C409.18 12.78 409.40 12.46 409.54 12.10C409.68 11.73 409.75 11.34 409.75 10.92C409.75 10.51 409.68 10.18 409.54 9.91Z"></path></g></svg>